Coordinates
version=1
nRows=8
nColumns=40
inDegrees=yes

Units are S.I. units (second, meters, Newtons, ...)
Angles are in degrees.

endheader
time	pelvis_tilt	pelvis_list	pelvis_rotation	pelvis_tx	pelvis_ty	pelvis_tz	hip_flexion_r	hip_adduction_r	hip_rotation_r	knee_angle_r	knee_angle_r_beta	ankle_angle_r	subtalar_angle_r	mtp_angle_r	hip_flexion_l	hip_adduction_l	hip_rotation_l	knee_angle_l	knee_angle_l_beta	ankle_angle_l	subtalar_angle_l	mtp_angle_l	lumbar_extension	lumbar_bending	lumbar_rotation	arm_flex_r	arm_add_r	arm_rot_r	elbow_flex_r	pro_sup_r	wrist_flex_r	wrist_dev_r	arm_flex_l	arm_add_l	arm_rot_l	elbow_flex_l	pro_sup_l	wrist_flex_l	wrist_dev_l
      3.07442857	     -6.53529513	     -6.77583166	      4.73599881	      0.99602578	      0.92985295	      0.49604430	     11.12512953	      5.23521117	    -19.88706556	     11.89089036	     11.89089036	      9.88358301	      5.53713626	     -1.88935263	     41.59792845	    -13.27423979	      3.65946239	     61.28709080	     61.28709080	      4.31801943	    -17.19793917	      7.83162847	    -12.38789518	      5.01679598	      3.42013975	     26.05575503	    -18.48142616	     -1.47526740	     63.86413066	     45.07724476	      0.00000000	      0.00000000	     -3.62499627	     -7.79276490	     -0.70389802	     30.15818742	     46.43003459	      0.00000000	      0.00000000
      3.08635714	     -6.65362285	     -6.88530380	      4.82977400	      0.99413828	      0.92984397	      0.49599766	     10.41581475	      5.49664716	    -20.02219526	     11.12446557	     11.12446557	      9.93410758	      6.02949365	     -1.97079361	     42.38293187	    -13.12514232	      3.42337726	     58.33482669	     58.33482669	      4.56868137	    -17.18579631	      8.48095255	    -12.44096784	      5.16059534	      3.54907810	     28.40854562	    -18.76815855	     -1.08995311	     65.83878777	     45.01273575	      0.00000000	      0.00000000	     -4.84220476	     -7.63066723	     -0.05942214	     29.37917709	     46.30469745	      0.00000000	      0.00000000
      3.09828571	     -6.78194024	     -7.00123784	      4.90751377	      0.99227777	      0.92967812	      0.49573719	      9.75935573	      5.73971456	    -20.13984671	     10.44821022	     10.44821022	     10.01185238	      6.45937663	     -2.07245337	     42.98304375	    -12.94507862	      3.21021585	     55.08677783	     55.08677783	      4.76184471	    -17.04415774	      9.09692528	    -12.48314503	      5.31555785	      3.71623915	     30.70943616	    -19.04665301	     -0.72257266	     67.81154443	     44.94951631	      0.00000000	      0.00000000	     -6.09251912	     -7.46330503	      0.57925508	     28.88493041	     46.17773459	      0.00000000	      0.00000000
      3.11021429	     -6.90792333	     -7.11011609	      4.95951112	      0.99043255	      0.92930758	      0.49523832	      9.16281673	      5.92240126	    -20.39673898	      9.89912921	      9.89912921	     10.03579445	      7.07486605	     -2.57939570	     43.39872332	    -12.72424118	      3.03435962	     51.63318728	     51.63318728	      5.03968615	    -16.67030295	      9.68352801	    -12.58320861	      5.50945134	      4.17007243	     32.55191622	    -20.26356292	      0.95637934	     70.91188727	     44.83079013	      0.00000000	      0.00000000	     -7.58229067	     -7.71102455	      3.31408278	     29.51616706	     45.70289046	      0.00000000	      0.00000000
      3.12214286	     -7.10168833	     -7.24712791	      4.96942164	      0.98873298	      0.92872575	      0.49465309	      8.62784285	      6.15602316	    -20.34403972	      9.34911105	      9.34911105	     10.22632920	      7.32510211	     -2.61350764	     43.66484805	    -12.47009921	      3.01553852	     47.94077717	     47.94077717	      5.30866289	    -16.18903992	     10.13012665	    -12.50414362	      5.72324057	      4.36454661	     34.93912927	    -20.09108169	      0.70118582	     72.41449425	     44.80587629	      0.00000000	      0.00000000	     -8.77264606	     -7.50829985	      3.76210313	     29.21536840	     45.61423879	      0.00000000	      0.00000000
      3.13407143	     -7.36699877	     -7.59088687	      4.98598859	      0.98705301	      0.92767317	      0.49394101	      8.37925286	      6.52770377	    -20.39193581	      9.18509843	      9.18509843	     10.50187326	      7.41364858	     -2.76328090	     43.96173040	    -12.39599303	      3.15655694	     44.23806173	     44.23806173	      5.70940884	    -15.26967554	     10.49753877	    -12.24105711	      6.16616734	      4.93941883	     36.95677425	    -20.42269991	      0.45500277	     73.36806065	     44.79360803	      0.00000000	      0.00000000	     -9.83306657	     -7.25673295	      3.91873802	     29.00084250	     45.57193410	      0.00000000	      0.00000000
      3.14600000	     -7.35082046	     -7.62601657	      5.03479908	      0.98586299	      0.92718497	      0.49280440	      7.36064574	      6.68611645	    -20.63959269	      8.22912423	      8.22912423	     10.64024504	      8.36799908	     -2.80350370	     43.57470792	    -12.00432034	      3.21865757	     40.32027522	     40.32027522	      6.04269202	    -14.46325217	     10.97597135	    -12.47934194	      6.34296222	      4.47546447	     39.27340333	    -19.93745082	      1.17056607	     76.56893743	     44.68879043	      0.00000000	      0.00000000	    -11.55248114	     -7.20201318	      5.01686015	     29.61992557	     45.36978667	      0.00000000	      0.00000000
      3.15792857	     -7.53242926	     -7.75198398	      4.99826838	      0.98460903	      0.92610895	      0.49166275	      6.91226223	      6.82610483	    -20.58520759	      7.96698373	      7.96698373	     10.99291839	      8.58731977	     -2.96344533	     43.30256565	    -11.75794119	      3.22754148	     36.48607857	     36.48607857	      6.44137554	    -13.26532138	     11.48071171	    -12.33751861	      6.57114833	      4.92001593	     41.31821092	    -20.08890604	      1.11374245	     77.81134726	     44.66280582	      0.00000000	      0.00000000	    -12.55232665	     -6.98138900	      5.31919619	     29.64990167	     45.30763159	      0.00000000	      0.00000000
